<svg width="42" height="30" viewBox="0 0 42 30" fill="none" xmlns="http://www.w3.org/2000/svg">
<path d="M40.9555 23.5208L38.6847 7.56251C38.1014 3.45834 34.5808 0.416672 30.4352 0.416672H11.5613C7.41569 0.416672 3.89505 3.45834 3.31175 7.56251L1.04105 23.5208C0.582739 26.7292 3.06177 29.5833 6.29075 29.5833C7.70734 29.5833 9.04059 29.0208 10.0405 28.0208L14.7486 23.3333H27.2479L31.9351 28.0208C32.9351 29.0208 34.2892 29.5833 35.6849 29.5833C38.9347 29.5833 41.4138 26.7292 40.9555 23.5208ZM18.915 12.9167H14.7486V17.0833H12.6654V12.9167H8.49896V10.8333H12.6654V6.66667H14.7486V10.8333H18.915V12.9167ZM27.2479 10.8333C26.1021 10.8333 25.1647 9.89584 25.1647 8.75001C25.1647 7.60417 26.1021 6.66667 27.2479 6.66667C28.3937 6.66667 29.3311 7.60417 29.3311 8.75001C29.3311 9.89584 28.3937 10.8333 27.2479 10.8333ZM31.4143 17.0833C30.2686 17.0833 29.3311 16.1458 29.3311 15C29.3311 13.8542 30.2686 12.9167 31.4143 12.9167C32.5601 12.9167 33.4975 13.8542 33.4975 15C33.4975 16.1458 32.5601 17.0833 31.4143 17.0833Z" fill="#2A7AE4"/>
</svg>
